# xmcd
#
# Track frame offsets:
#	150
#	11812
#	27612
#	45465
#	59970
#	76185
#	93362
#	109585
#	122035
#	136162
#
# Disc length: 1996 seconds
#
# Revision: 5
# Processed by: cddbd v1.5.2PL0 Copyright (c) Steve Scherf et al.
# Submitted via: audiograbber 1.83.01
#
DISCID=8207ca0a
DTITLE=Various Artist - Ten Best Series - All Star Country
DYEAR=1993
DGENRE=Oldies
TTITLE0=Chris LeDoux and Garth Brooks - Whatcha Gonna Do With A Cowboy
TTITLE1=Billy Dean - Only Here For A Little While
TTITLE2=Suzy Bogguss - Someday Soon
TTITLE3=Eddie Rabbitt - American Boy
TTITLE4=Lacy J. Dalton - Black Coffee
TTITLE5=Dan Seals - Love On Arrival
TTITLE6=Tanya Tucker - My Arms Stay Open All Night
TTITLE7=Lee Greenwood - Holdin' A Good Hand
TTITLE8=T. Graham Brown - If You Could Only See Me Now
TTITLE9=Pirates Of The Mississippi - Honky Tonk Blues
EXTD=YEAR: 1993
EXTT0=
EXTT1=
EXTT2=
EXTT3=
EXTT4=
EXTT5=
EXTT6=
EXTT7=
EXTT8=
EXTT9=
PLAYORDER=
